<svg width="28" height="14" viewBox="0 0 28 14" fill="none" xmlns="http://www.w3.org/2000/svg">
<path fill-rule="evenodd" clip-rule="evenodd" d="M0.403276 2.02024C0 2.81171 0 3.8478 0 5.91999V7.75C0 9.82219 0 10.8583 0.403276 11.6498C0.758007 12.346 1.32404 12.912 2.02024 13.2667C2.81171 13.67 3.84781 13.67 5.92 13.67H19.08C21.1522 13.67 22.1883 13.67 22.9798 13.2667C23.676 12.912 24.242 12.346 24.5967 11.6498C25 10.8583 25 9.8222 25 7.75001V5.92C25 3.84781 25 2.81171 24.5967 2.02024C24.242 1.32404 23.676 0.758007 22.9798 0.403276C22.1883 0 21.1522 0 19.08 0H5.92C3.84781 0 2.81171 0 2.02024 0.403276C1.32404 0.758007 0.758007 1.32404 0.403276 2.02024ZM27.3365 6.83497C27.3365 7.85053 26.8025 8.74136 26 9.24202V4.42792C26.8025 4.92858 27.3365 5.81941 27.3365 6.83497Z" fill="white"/>
<path d="M5.06539 11V4.96687H4.97161L3.12728 6.24852V4.83141L5.0706 3.48203H6.63879V11H5.06539ZM11.5778 11.1928C9.72309 11.1928 8.59253 9.67146 8.59253 7.24362V7.2332C8.59253 4.80015 9.72309 3.28926 11.5778 3.28926C13.4378 3.28926 14.5631 4.80015 14.5631 7.2332V7.24362C14.5631 9.67146 13.4378 11.1928 11.5778 11.1928ZM11.5778 9.94759C12.4687 9.94759 12.9741 8.94207 12.9741 7.24362V7.2332C12.9741 5.52954 12.4687 4.53444 11.5778 4.53444C10.6921 4.53444 10.1868 5.52954 10.1868 7.2332V7.24362C10.1868 8.94207 10.6921 9.94759 11.5778 9.94759ZM18.8822 11.1928C17.0275 11.1928 15.8969 9.67146 15.8969 7.24362V7.2332C15.8969 4.80015 17.0275 3.28926 18.8822 3.28926C20.7422 3.28926 21.8675 4.80015 21.8675 7.2332V7.24362C21.8675 9.67146 20.7422 11.1928 18.8822 11.1928ZM18.8822 9.94759C19.7731 9.94759 20.2785 8.94207 20.2785 7.24362V7.2332C20.2785 5.52954 19.7731 4.53444 18.8822 4.53444C17.9965 4.53444 17.4911 5.52954 17.4911 7.2332V7.24362C17.4911 8.94207 17.9965 9.94759 18.8822 9.94759Z" fill="black"/>
</svg>
